<svg width="18" height="15" viewBox="0 0 18 15" fill="none" xmlns="http://www.w3.org/2000/svg">
<path fill-rule="evenodd" clip-rule="evenodd" d="M1.79304 6.36993C6.40586 4.34229 9.48928 3.03174 11.0187 2.38883C15.4095 0.559004 16.3222 0.237549 16.9142 0.237549C17.0375 0.237549 17.3335 0.262276 17.5309 0.41064C17.6789 0.534277 17.7282 0.707368 17.7529 0.831004C17.7775 0.954641 17.8022 1.22664 17.7775 1.44919C17.5309 3.94665 16.5195 10.0543 15.9768 12.8485C15.7548 14.0354 15.3108 14.431 14.8915 14.4805C13.9788 14.5547 13.2634 13.8623 12.3754 13.2936C10.994 12.3787 10.2046 11.8099 8.84793 10.9198C7.29388 9.88121 8.30525 9.31248 9.19328 8.39757C9.41528 8.15029 13.4854 4.46592 13.5594 4.11974C13.5594 4.07029 13.5841 3.92192 13.4854 3.84774C13.3867 3.77356 13.2634 3.79828 13.1647 3.82301C13.0167 3.84774 10.7967 5.33138 6.47986 8.2492C5.8385 8.6943 5.27115 8.89211 4.75314 8.89211C4.18579 8.89211 3.10042 8.57066 2.28639 8.29866C1.2997 7.9772 0.510338 7.80411 0.58434 7.26011C0.658342 6.96338 1.05302 6.66665 1.79304 6.36993Z" fill="#111010"/>
</svg>
