<svg width="22" height="13" viewBox="0 0 22 13" fill="none" xmlns="http://www.w3.org/2000/svg">
<path fill-rule="evenodd" clip-rule="evenodd" d="M3.42828 0H1.11879C0.458936 0 0.326965 0.313333 0.326965 0.66C0.326965 1.278 1.10955 4.34333 3.97266 8.39733C5.88096 11.166 8.56986 12.6667 11.0166 12.6667C12.4848 12.6667 12.6662 12.3333 12.6662 11.7593V9.66667C12.6662 9 12.8048 8.86667 13.27 8.86667C13.6131 8.86667 14.2004 9.04 15.5703 10.3747C17.1361 11.9567 17.3941 12.6667 18.275 12.6667H20.5845C21.2443 12.6667 21.5743 12.3333 21.3836 11.6753C21.1757 11.02 20.4281 10.0687 19.4357 8.94133C18.8972 8.29867 18.0896 7.606 17.8454 7.26C17.5023 6.81533 17.6013 6.61733 17.8454 6.222C17.8454 6.222 20.659 2.21733 20.9533 0.858C21.0998 0.363334 20.9533 0 20.2539 0H17.9451C17.3578 0 17.0873 0.313333 16.9408 0.66C16.9408 0.66 15.7662 3.552 14.1027 5.43067C13.5643 5.97467 13.3195 6.148 13.0259 6.148C12.8794 6.148 12.6669 5.97467 12.6669 5.48067V0.858C12.6669 0.264667 12.496 0 12.007 0H8.37784C8.01096 0 7.79057 0.275334 7.79057 0.536667C7.79057 1.09867 8.62199 1.22867 8.70777 2.81V6.24667C8.70777 7 8.57316 7.13667 8.27887 7.13667C7.49628 7.13667 5.59194 4.23133 4.46227 0.907333C4.24056 0.26 4.01819 0 3.42828 0Z" fill="#111010"/>
</svg>
