<svg width="22" height="22" viewBox="0 0 22 22" fill="none" xmlns="http://www.w3.org/2000/svg">
<path d="M7.09752 9.24393L5.13251 11.2089C4.39864 11.9428 3.97661 12.9414 3.98432 13.9908C3.99204 15.0402 4.40483 16.0449 5.17353 16.7898C5.91844 17.5586 6.92329 17.9713 7.97257 17.979C9.04578 17.9869 10.0207 17.5887 10.7546 16.8548L12.7196 14.8898M15.2295 12.4279L17.1945 10.4629C17.9284 9.72899 18.3504 8.73044 18.3427 7.681C18.335 6.63156 17.9222 5.62692 17.1535 4.88196C16.4088 4.13722 15.4041 3.7244 14.3547 3.71669C13.3052 3.70898 12.3065 4.10705 11.5726 4.84094L9.60762 6.80595M8.18372 13.7632L14.0787 7.86814" stroke="#111010" stroke-width="1.4" stroke-linecap="round" stroke-linejoin="round"/>
</svg>
