<svg width="19" height="18" viewBox="0 0 19 18" fill="none" xmlns="http://www.w3.org/2000/svg">
<path d="M15.9974 14.0781C15.9974 14.0781 15.1284 14.9317 14.9154 15.1819C14.5685 15.5521 14.1598 15.7269 13.6239 15.7269C13.5724 15.7269 13.5175 15.7269 13.4659 15.7235C12.4458 15.6583 11.4978 15.2607 10.7868 14.9214C8.84274 13.9822 7.13566 12.6488 5.7171 10.9589C4.54584 9.55007 3.76271 8.24753 3.24406 6.849C2.92463 5.99549 2.80784 5.33051 2.85936 4.70323C2.89371 4.30218 3.04828 3.96969 3.33336 3.68518L4.50462 2.51632C4.67292 2.35864 4.85153 2.27295 5.02671 2.27295C5.2431 2.27295 5.41827 2.4032 5.52818 2.51289C5.53162 2.51632 5.53505 2.51975 5.53849 2.52318C5.74801 2.71856 5.94723 2.9208 6.15675 3.13674C6.26322 3.24643 6.37314 3.35612 6.48305 3.46924L7.42074 4.40501C7.78483 4.76836 7.78483 5.10428 7.42074 5.46762C7.32114 5.56702 7.22496 5.66643 7.12535 5.7624C6.83683 6.05719 7.06348 5.831 6.76466 6.09837C6.75779 6.10522 6.75092 6.10865 6.74748 6.11551C6.45209 6.41029 6.50705 6.69823 6.56887 6.89361C6.57231 6.90389 6.57574 6.91417 6.57918 6.92446C6.82305 7.51403 7.16652 8.06933 7.68861 8.73088L7.69205 8.73431C8.64004 9.89975 9.63956 10.8081 10.7421 11.5039C10.8829 11.5931 11.0272 11.665 11.1646 11.7336C11.2883 11.7953 11.405 11.8536 11.5046 11.9153C11.5184 11.9221 11.5321 11.9324 11.5459 11.9393C11.6626 11.9975 11.7726 12.025 11.8859 12.025C12.171 12.025 12.3496 11.8467 12.408 11.7884L13.0812 11.1166C13.198 11 13.3835 10.8595 13.5999 10.8595C13.8129 10.8595 13.988 10.9932 14.0945 11.1097C14.0979 11.1131 14.0979 11.1131 14.1014 11.1166L15.9939 13.0053C16.3477 13.3549 15.9974 14.0781 15.9974 14.0781Z" stroke="white" stroke-opacity="0.72" stroke-width="1.4" stroke-linecap="round" stroke-linejoin="round"/>
</svg>
