<svg width="218" height="323" viewBox="0 0 218 323" fill="none" xmlns="http://www.w3.org/2000/svg">
<g filter="url(#filter0_dddi_313_2407)">
<path d="M109 37L70.083 59.3257V225.714L81.7438 232.404V66.0164L109 50.3814L136.256 66.0164V232.404L147.917 225.714V59.3257L109 37ZM109 286L181 244.694V136.926L169.339 130.235V238.005L109 272.62L48.6608 238.005V130.235L37 136.926V244.694L109 286Z" fill="url(#paint0_linear_313_2407)"/>
<path d="M109 37L70.083 59.3257V225.714L81.7438 232.404V66.0164L109 50.3814L136.256 66.0164V232.404L147.917 225.714V59.3257L109 37ZM109 286L181 244.694V136.926L169.339 130.235V238.005L109 272.62L48.6608 238.005V130.235L37 136.926V244.694L109 286Z" fill="url(#paint1_linear_313_2407)" fill-opacity="0.4"/>
</g>
<defs>
<filter id="filter0_dddi_313_2407" x="0.0999985" y="0.0999985" width="217.8" height="322.8" filterUnits="userSpaceOnUse" color-interpolation-filters="sRGB">
<feFlood flood-opacity="0" result="BackgroundImageFix"/>
<feColorMatrix in="SourceAlpha" type="matrix" values="0 0 0 0 0 0 0 0 0 0 0 0 0 0 0 0 0 0 127 0" result="hardAlpha"/>
<feOffset dy="4"/>
<feGaussianBlur stdDeviation="2"/>
<feComposite in2="hardAlpha" operator="out"/>
<feColorMatrix type="matrix" values="0 0 0 0 0 0 0 0 0 0 0 0 0 0 0 0 0 0 0.25 0"/>
<feBlend mode="normal" in2="BackgroundImageFix" result="effect1_dropShadow_313_2407"/>
<feColorMatrix in="SourceAlpha" type="matrix" values="0 0 0 0 0 0 0 0 0 0 0 0 0 0 0 0 0 0 127 0" result="hardAlpha"/>
<feOffset/>
<feGaussianBlur stdDeviation="4.05"/>
<feComposite in2="hardAlpha" operator="out"/>
<feColorMatrix type="matrix" values="0 0 0 0 0.776471 0 0 0 0 0.352941 0 0 0 0 0.611765 0 0 0 0.72 0"/>
<feBlend mode="normal" in2="effect1_dropShadow_313_2407" result="effect2_dropShadow_313_2407"/>
<feColorMatrix in="SourceAlpha" type="matrix" values="0 0 0 0 0 0 0 0 0 0 0 0 0 0 0 0 0 0 127 0" result="hardAlpha"/>
<feOffset/>
<feGaussianBlur stdDeviation="18.45"/>
<feComposite in2="hardAlpha" operator="out"/>
<feColorMatrix type="matrix" values="0 0 0 0 0.0313726 0 0 0 0 0.67451 0 0 0 0 0.862745 0 0 0 0.32 0"/>
<feBlend mode="normal" in2="effect2_dropShadow_313_2407" result="effect3_dropShadow_313_2407"/>
<feBlend mode="normal" in="SourceGraphic" in2="effect3_dropShadow_313_2407" result="shape"/>
<feColorMatrix in="SourceAlpha" type="matrix" values="0 0 0 0 0 0 0 0 0 0 0 0 0 0 0 0 0 0 127 0" result="hardAlpha"/>
<feOffset dx="1" dy="1"/>
<feGaussianBlur stdDeviation="0.85"/>
<feComposite in2="hardAlpha" operator="arithmetic" k2="-1" k3="1"/>
<feColorMatrix type="matrix" values="0 0 0 0 1 0 0 0 0 1 0 0 0 0 1 0 0 0 0.48 0"/>
<feBlend mode="normal" in2="shape" result="effect4_innerShadow_313_2407"/>
</filter>
<linearGradient id="paint0_linear_313_2407" x1="117" y1="46" x2="73.5" y2="276" gradientUnits="userSpaceOnUse">
<stop stop-color="#FF2499"/>
<stop offset="1" stop-color="#00C4FF"/>
</linearGradient>
<linearGradient id="paint1_linear_313_2407" x1="133.6" y1="51.2966" x2="65.999" y2="85.6428" gradientUnits="userSpaceOnUse">
<stop stop-color="white" stop-opacity="0.6"/>
<stop offset="1" stop-color="#101937"/>
</linearGradient>
</defs>
</svg>
