<svg width="32" height="32" viewBox="0 0 32 32" fill="none" xmlns="http://www.w3.org/2000/svg">
<g opacity="0.8">
<path d="M0.327026 15.3333C0.327026 8.10533 0.327026 4.49133 2.54941 2.24533C4.7718 -0.000666618 8.34953 2.34616e-10 15.5037 2.34616e-10H16.8234C23.9775 2.34616e-10 27.5552 0 29.7776 2.24533C32 4.49133 32 8.10533 32 15.3333V16.6667C32 23.8947 32 27.5093 29.7776 29.7547C27.5546 32 23.9775 32 16.8234 32H15.5037C8.34953 32 4.77246 32 2.54941 29.7547C0.327026 27.5087 0.327026 23.8947 0.327026 16.6667V15.3333Z" fill="url(#paint0_linear_386_4419)"/>
<path d="M0.327026 15.3333C0.327026 8.10533 0.327026 4.49133 2.54941 2.24533C4.7718 -0.000666618 8.34953 2.34616e-10 15.5037 2.34616e-10H16.8234C23.9775 2.34616e-10 27.5552 0 29.7776 2.24533C32 4.49133 32 8.10533 32 15.3333V16.6667C32 23.8947 32 27.5093 29.7776 29.7547C27.5546 32 23.9775 32 16.8234 32H15.5037C8.34953 32 4.77246 32 2.54941 29.7547C0.327026 27.5087 0.327026 23.8947 0.327026 16.6667V15.3333Z" fill="url(#paint1_linear_386_4419)"/>
<path d="M0.327026 15.3333C0.327026 8.10533 0.327026 4.49133 2.54941 2.24533C4.7718 -0.000666618 8.34953 2.34616e-10 15.5037 2.34616e-10H16.8234C23.9775 2.34616e-10 27.5552 0 29.7776 2.24533C32 4.49133 32 8.10533 32 15.3333V16.6667C32 23.8947 32 27.5093 29.7776 29.7547C27.5546 32 23.9775 32 16.8234 32H15.5037C8.34953 32 4.77246 32 2.54941 29.7547C0.327026 27.5087 0.327026 23.8947 0.327026 16.6667V15.3333Z" fill="url(#paint2_linear_386_4419)"/>
<path d="M12.0975 14.2439L10.1325 16.2089C9.39864 16.9428 8.97661 17.9414 8.98432 18.9908C8.99204 20.0402 9.40483 21.0449 10.1735 21.7898C10.9184 22.5586 11.9233 22.9713 12.9726 22.979C14.0458 22.9869 15.0207 22.5887 15.7546 21.8548L17.7196 19.8898M20.2295 17.4279L22.1945 15.4629C22.9284 14.729 23.3504 13.7304 23.3427 12.681C23.335 11.6316 22.9222 10.6269 22.1535 9.88196C21.4088 9.13722 20.4041 8.7244 19.3547 8.71669C18.3052 8.70898 17.3065 9.10705 16.5726 9.84094L14.6076 11.8059M13.1837 18.7632L19.0787 12.8681" stroke="#111010" stroke-width="1.4" stroke-linecap="round" stroke-linejoin="round"/>
</g>
<defs>
<linearGradient id="paint0_linear_386_4419" x1="1.75938e-07" y1="33.5" x2="43.7948" y2="28.2313" gradientUnits="userSpaceOnUse">
<stop offset="0.00718202" stop-color="#08ACDC"/>
<stop offset="0.213289" stop-color="#A4D5FF"/>
<stop offset="0.414811" stop-color="#D1B9EE"/>
<stop offset="0.769676" stop-color="#C65A9C"/>
<stop offset="1" stop-color="#AC3174"/>
</linearGradient>
<linearGradient id="paint1_linear_386_4419" x1="-11" y1="32" x2="47.7652" y2="28.6724" gradientUnits="userSpaceOnUse">
<stop offset="0.00718202" stop-color="#08ACDC"/>
<stop offset="0.213289" stop-color="#A4D5FF"/>
<stop offset="0.414811" stop-color="#D1B9EE"/>
<stop offset="0.769676" stop-color="#C65A9C"/>
<stop offset="1" stop-color="#AC3174"/>
</linearGradient>
<linearGradient id="paint2_linear_386_4419" x1="-11" y1="32" x2="47.7652" y2="28.6724" gradientUnits="userSpaceOnUse">
<stop offset="0.00718202" stop-color="#08ACDC"/>
<stop offset="0.213289" stop-color="#A4D5FF"/>
<stop offset="0.414811" stop-color="#D1B9EE"/>
<stop offset="0.769676" stop-color="#C65A9C"/>
<stop offset="1" stop-color="#AC3174"/>
</linearGradient>
</defs>
</svg>
