<svg width="136" height="45" viewBox="0 0 136 45" fill="none" xmlns="http://www.w3.org/2000/svg">
<path d="M7.5929 35.1279V36.2148L15.9029 33.4303L15.9384 32.3315L7.5929 35.127V35.1279ZM22.4311 42.2091H23.4503L23.6396 22.7316L7.59473 28.1584V29.2462L22.6104 24.1644L22.6067 24.3369L22.4311 42.2091ZM0.100098 45H1.11654L1.11379 5.09472C4.67001 3.911 8.39097 2.72727 11.9472 1.54078C14.5015 0.692885 17.2042 1.14037 19.3581 2.77895C21.4074 4.33542 22.6295 6.88554 22.6295 9.60544V17.5428L23.6469 17.54V9.64603C23.6469 6.57369 22.2691 3.69881 19.9669 1.95044C17.5409 0.110727 14.5015 -0.394874 11.6287 0.561885L0.100098 4.34464V45ZM37.9164 0.146705C40.5417 0.146705 41.5645 1.8305 41.5645 4.35203V6.23047C41.5645 8.97528 40.326 10.3343 37.6233 10.3343L35.5067 10.3352V17.4569H34.3883V0.146705H37.9164ZM37.6233 9.30004C39.5934 9.30004 40.4452 8.40879 40.4452 6.30798V4.28006C40.4452 2.4016 39.8119 1.18927 37.9164 1.18927H35.5067V9.30189H37.6233V9.30004ZM60.0154 0.146705C62.6425 0.146705 63.7845 1.90429 63.7845 4.44981V13.1566C63.7845 15.703 62.6425 17.4597 60.0154 17.4597H56.2708V0.146705H60.0154ZM59.9908 16.4245C61.889 16.4245 62.6652 15.1135 62.6652 13.2092V4.40091C62.6652 2.49661 61.8599 1.18558 59.9908 1.18558H57.3892V16.4199H59.9908V16.4227V16.4245ZM68.5765 9.32403V17.4625H67.4581V0.146705H68.5765V8.28516H73.8808V0.147629H75.0228V17.4597H73.8808V9.32403H68.5765ZM78.7192 4.37692C78.7192 1.85354 79.863 0 82.441 0C85.0673 0 86.212 1.85631 86.212 4.37692V13.2304C86.212 15.7538 85.0673 17.6073 82.441 17.6073C79.864 17.6073 78.7201 15.7538 78.7201 13.2295L78.7192 4.37784V4.37692ZM79.8358 13.307C79.8358 15.1864 80.5646 16.5712 82.4374 16.5712C84.3347 16.5712 85.0891 15.1864 85.0891 13.307V4.30313C85.0891 2.42374 84.3356 1.03795 82.4374 1.03795C80.5646 1.03795 79.8358 2.42374 79.8358 4.30313V13.307ZM93.6275 0.146705C96.2546 0.146705 97.3967 1.90429 97.3967 4.44981V13.1566C97.3967 15.703 96.2519 17.4597 93.6275 17.4597H89.882V0.146705H93.6275ZM93.6029 16.4236C95.5012 16.4236 96.2801 15.1117 96.2801 13.2083V4.40091C96.2801 2.49661 95.4766 1.18558 93.6029 1.18558H91.0013V16.4199H93.6029V16.4227V16.4236ZM36.2611 38.3627L35.4094 42.198H34.3874L38.1083 24.861L39.739 24.8601L43.5328 42.1971L42.4135 42.198L41.5618 38.3636H36.2611V38.3627ZM36.4313 37.3755H41.3934L38.8901 26.1721L36.4303 37.3755H36.4313ZM50.6534 24.8859C53.2551 24.8859 54.3016 26.3446 54.3016 28.7951V30.3045C54.3016 32.3315 53.5235 33.4949 51.8446 33.8898C53.5954 34.2847 54.3016 35.5477 54.3016 37.4271V40.123C54.3016 40.8418 54.3489 41.6334 54.7156 42.2017H53.5481C53.255 41.6823 53.1822 41.0623 53.1822 40.123V37.4041C53.1822 35.1049 51.9429 34.46 49.9946 34.46L48.2192 34.4609V42.2017H47.1008V24.8859H50.6534ZM50.02 33.4192C52.0129 33.4192 53.1822 32.8509 53.1822 30.5259V28.8947C53.1822 27.0375 52.477 25.9248 50.6279 25.9248H48.2192V33.4192H50.02ZM65.4116 29.1152V30.549H64.3433V29.0386C64.3433 27.1851 63.6371 25.7744 61.7634 25.7744C59.8907 25.7744 59.1846 27.1842 59.1846 29.0386V38.0425C59.1846 39.8988 59.8907 41.2818 61.7643 41.2818C63.6371 41.2818 64.3433 39.8961 64.3433 38.0425V35.9897H65.4116V37.9687C65.4116 40.4672 64.3423 42.3456 61.7379 42.3456C59.1372 42.3456 58.0652 40.4672 58.0652 37.9687V29.1152C58.0652 26.6168 59.1345 24.7374 61.7379 24.7374C64.3423 24.7374 65.4116 26.6177 65.4116 29.1161V29.1152ZM70.1571 34.0596V42.1971L69.0379 42.198V24.8822H70.1571V33.0207H75.4578V24.8859H76.6035V42.2017H75.4578V34.0632H70.1571V34.0605V34.0596ZM81.4764 24.8859V42.2017H80.3572V24.8859H81.4756H81.4764ZM88.3514 42.1989V25.9248H84.8743V24.8859H92.9241V25.9248H89.4716V42.2017H88.3523V42.1989H88.3514ZM102.136 32.8998V33.9368H97.4913V41.1591H103.086V42.198H96.3711V24.8822H103.086V25.9211H97.4913V32.8961H102.136V32.8989V32.8998ZM113.704 29.1152V30.549H112.635V29.0386C112.635 27.1851 111.929 25.7744 110.055 25.7744C108.182 25.7744 107.479 27.1842 107.479 29.0386V38.0425C107.479 39.8988 108.185 41.2818 110.055 41.2818C111.929 41.2818 112.635 39.8961 112.635 38.0425V35.9897H113.704V37.9687C113.704 40.4672 112.635 42.3456 110.03 42.3456C107.426 42.3456 106.356 40.4672 106.356 37.9687V29.1152C106.356 26.6168 107.426 24.7374 110.03 24.7374C112.635 24.7374 113.704 26.6177 113.704 29.1161V29.1152ZM120.184 42.1989V25.9248H116.705V24.8859H124.755V25.9248H121.303V42.2017H120.184V42.1989ZM135.075 29.0645V29.4354H134.006V28.9897C134.006 27.1592 133.325 25.7744 131.477 25.7744C129.628 25.7744 128.949 27.1334 128.949 28.9648C128.949 33.1683 135.1 33.243 135.1 38.0167C135.1 40.5151 134.031 42.3456 131.427 42.3456C128.823 42.3456 127.754 40.5151 127.754 38.0167V37.1264H128.822V38.0914C128.822 39.944 129.529 41.2809 131.398 41.2809C133.272 41.2809 133.978 39.944 133.978 38.0905C133.978 33.9341 127.823 33.8612 127.823 29.0377C127.823 26.4414 128.943 24.7604 131.446 24.7346C134.031 24.7374 135.075 26.566 135.075 29.0645ZM45.5193 13.6391L44.6685 17.4736H43.6474L47.3684 0.135623H48.9981L52.7919 17.4736H51.6735L50.8209 13.6401L45.5193 13.6391ZM45.6904 12.6519H50.6534L48.1473 1.44851L45.6904 12.6519Z" fill="white"/>
</svg>
