<svg width="67" height="32" viewBox="0 0 67 32" fill="none" xmlns="http://www.w3.org/2000/svg">
<path fill-rule="evenodd" clip-rule="evenodd" d="M0.825317 11.3254V17.7804L6.65017 23.4055H13.2588L0.825317 11.3254Z" fill="#E41C1D"/>
<path fill-rule="evenodd" clip-rule="evenodd" d="M61.871 9.85154H51.8658C51.3125 9.85154 50.8515 9.40584 50.8515 8.86793V6.19371C50.8515 5.08714 51.7582 4.19575 52.9109 4.19575H66.159L61.9633 0.0153723H52.2193C49.0994 0.0153723 46.5635 2.47441 46.5635 5.53285V9.94375C46.5635 12.1415 48.3617 13.909 50.6056 13.909H60.6108C61.3178 13.909 61.8864 14.4622 61.8864 15.1538V17.2748C61.8864 18.4582 60.9028 19.4418 59.6886 19.4418H51.2049H46.5942V23.4377H60.3341C63.5616 23.4377 66.1897 20.9019 66.1897 17.7512V14.0473C66.1897 11.7419 64.2686 9.8669 61.9018 9.8669L61.871 9.85154ZM42.5215 11.5729C43.6895 10.3433 44.3811 8.69886 44.3811 6.90068C44.3811 3.10454 41.2151 0 37.3114 0H24.0633V13.7706H38.2489C39.3708 13.7706 40.2622 14.6467 40.2622 15.7379V17.7051C40.2622 18.6426 39.4938 19.3957 38.5409 19.3957H25.7539L29.7191 23.4224H38.9097C42.045 23.4224 44.5963 20.9326 44.5963 17.8742V16.491C44.5963 14.5698 43.7971 12.8331 42.5061 11.5729H42.5215ZM28.7047 4.25722H37.1269C38.7099 4.25722 39.9856 5.50211 39.9856 7.05438C39.9856 8.60665 38.7099 9.85154 37.1269 9.85154H28.7047V4.25722ZM15.0878 13.8782L24.9086 23.4224H18.2999L0.825317 6.5472V0H15.3183C19.2528 0 22.4341 3.10454 22.4341 6.93143C22.4341 10.7583 19.2528 13.8629 15.3183 13.8629H15.0878V13.8782ZM15.2261 4.24185H5.17475L10.9381 9.85154H15.2261C16.8245 9.85154 18.1001 8.59128 18.1001 7.03901C18.1001 5.48674 16.8091 4.22648 15.2261 4.22648V4.24185Z" fill="white"/>
<path fill-rule="evenodd" clip-rule="evenodd" d="M0.810303 31.9847V27.9888H4.71403V28.5421H1.50191V29.8484H3.33082V30.371H1.50191V31.9847H0.810303Z" fill="white"/>
<path d="M6.55672 27.9888H5.86511V31.9847H6.55672V27.9888Z" fill="white"/>
<path fill-rule="evenodd" clip-rule="evenodd" d="M10.2778 28.5421V31.9847H9.5862V28.5421H7.71118V27.9888H12.1528V28.5421H10.2778Z" fill="white"/>
<path d="M14.5811 29.6934H12.8444V30.262H14.5811V29.6934Z" fill="white"/>
<path fill-rule="evenodd" clip-rule="evenodd" d="M15.579 28.9407C15.579 28.5718 15.6405 28.3413 15.7788 28.203C15.9171 28.0646 16.163 28.0032 16.5472 28.0032H19.3751C19.744 28.0032 19.9899 28.0646 20.1282 28.203C20.2665 28.3259 20.328 28.5872 20.328 28.9407V31.0462C20.328 31.4151 20.2665 31.661 20.1282 31.7839C20.0053 31.9069 19.744 31.9684 19.3751 31.9684H16.5472C16.1784 31.9684 15.9171 31.9069 15.7788 31.7686C15.6558 31.6303 15.579 31.3844 15.579 31.0309V28.9407ZM16.2706 31.4305H19.6671V28.5411H16.2706V31.4305Z" fill="white"/>
<path fill-rule="evenodd" clip-rule="evenodd" d="M23.0965 28.0012V31.4438H26.0781V28.0012H26.7543V31.0443C26.7543 31.4131 26.6929 31.659 26.5545 31.782C26.4316 31.9049 26.1703 31.9664 25.8015 31.9664H23.3732C23.0043 31.9664 22.7584 31.9049 22.6047 31.7666C22.4664 31.6283 22.4049 31.3824 22.4049 31.0289V27.9705H23.0811L23.0965 28.0012Z" fill="white"/>
<path fill-rule="evenodd" clip-rule="evenodd" d="M30.4739 28.5421V31.9847H29.7822V28.5421H27.9072V27.9888H32.3489V28.5421H30.4739Z" fill="white"/>
<path fill-rule="evenodd" clip-rule="evenodd" d="M40.0476 28.5411H36.8509V31.4305H40.0476V30.2624H38.3878V29.7552H40.7239V31.0462C40.7239 31.4151 40.6624 31.661 40.5241 31.7839C40.4011 31.9069 40.1245 31.9838 39.7556 31.9838H37.1122C36.7433 31.9838 36.482 31.9223 36.3437 31.7839C36.2208 31.6456 36.1439 31.3997 36.1439 31.0462V28.9407C36.1439 28.5718 36.2054 28.3413 36.3437 28.203C36.482 28.0646 36.7279 28.0032 37.1122 28.0032H39.7556C40.1245 28.0032 40.3704 28.0647 40.5087 28.1876C40.647 28.3106 40.7085 28.5565 40.7085 28.8946V28.9868L40.0169 29.1097V28.5411H40.0476Z" fill="white"/>
<path fill-rule="evenodd" clip-rule="evenodd" d="M42.6912 31.9847V27.9888H45.9955C46.3029 27.9888 46.5334 28.0502 46.6564 28.1732C46.7947 28.2962 46.8562 28.496 46.8562 28.7726V29.664C46.8562 29.9253 46.7947 30.1251 46.6564 30.248C46.5334 30.371 46.3029 30.4324 45.9955 30.4324H45.3961L47.2711 31.9847H46.2568L44.5815 30.4478H43.3674V32.0001H42.6758L42.6912 31.9847ZM45.7342 28.5113H43.3981V29.9099H45.7342C45.9033 29.9099 46.0109 29.8792 46.0877 29.8177C46.1492 29.7562 46.1799 29.6486 46.1799 29.4949V28.9109C46.1799 28.7572 46.1492 28.6496 46.0877 28.5882C46.0262 28.5421 45.9033 28.4959 45.7342 28.4959V28.5113Z" fill="white"/>
<path fill-rule="evenodd" clip-rule="evenodd" d="M48.6853 28.9407C48.6853 28.5718 48.7468 28.3413 48.8851 28.203C49.0234 28.0646 49.2693 28.0032 49.6536 28.0032H52.4815C52.8503 28.0032 53.0962 28.0646 53.2345 28.203C53.3575 28.3259 53.4343 28.5872 53.4343 28.9407V31.0462C53.4343 31.4151 53.3729 31.661 53.2345 31.7839C53.1116 31.9069 52.8503 31.9684 52.4815 31.9684H49.6536C49.2847 31.9684 49.0234 31.9069 48.8851 31.7686C48.7468 31.6303 48.6853 31.3844 48.6853 31.0309V28.9407ZM49.3769 31.4305H52.7735V28.5411H49.3769V31.4305Z" fill="white"/>
<path fill-rule="evenodd" clip-rule="evenodd" d="M56.1999 28.0012V31.4438H59.1815V28.0012H59.8577V31.0443C59.8577 31.4131 59.7963 31.659 59.6579 31.782C59.5196 31.9049 59.2737 31.9664 58.9049 31.9664H56.4765C56.1077 31.9664 55.8618 31.9049 55.7081 31.7666C55.5851 31.6283 55.5083 31.3824 55.5083 31.0289V27.9705H56.1845L56.1999 28.0012Z" fill="white"/>
<path fill-rule="evenodd" clip-rule="evenodd" d="M61.9951 31.9847V27.9888H65.2995C65.6068 27.9888 65.8374 28.0502 65.9603 28.1732C66.0833 28.2962 66.1601 28.496 66.1601 28.7726V29.664C66.1601 29.9253 66.0986 30.1251 65.9603 30.248C65.822 30.371 65.6068 30.4324 65.2995 30.4324H62.6867V31.9847H61.9951ZM65.0228 28.5113H62.6867V29.9099H65.0228C65.1919 29.9099 65.2995 29.8792 65.3763 29.8177C65.4378 29.7562 65.4685 29.6486 65.4685 29.4949V28.9417C65.4685 28.788 65.4378 28.6804 65.3763 28.6189C65.3148 28.5728 65.2072 28.5267 65.0228 28.5267V28.5113Z" fill="white"/>
</svg>
