<svg width="333" height="28" viewBox="0 0 333 28" fill="none" xmlns="http://www.w3.org/2000/svg">
<path fill-rule="evenodd" clip-rule="evenodd" d="M16.9201 16.5822H17.203C21.8681 16.5822 25.6433 12.8731 25.6433 8.2911C25.6433 3.70968 21.8681 0 17.203 0H0V7.82194L20.7335 27.9855H28.5693L16.9201 16.581V16.5822ZM17.1001 5.07722C18.9815 5.07722 20.516 6.57124 20.516 8.43153C20.516 10.2803 18.9951 11.7865 17.1001 11.7865H12.0097L5.16799 5.07902H17.1001V5.07722ZM49.4945 13.8356C50.8737 12.3682 51.7112 10.4056 51.7112 8.25418C51.7112 3.7103 47.9613 0.0145134 43.3227 0.0145134H27.6006V16.4823H44.4436C45.7704 16.4823 46.8397 17.5326 46.8397 18.836V21.1781C46.8397 22.2908 45.9257 23.1898 44.7906 23.1898H29.6114L34.3141 28H45.2275C48.9522 28 51.9799 25.0252 51.9799 21.3676V19.7095C51.9799 17.4055 51.0395 15.3291 49.4921 13.8356H49.4945ZM33.0908 5.09052H43.0903C44.9711 5.09052 46.4915 6.58395 46.4915 8.43153C46.4915 10.2803 44.9711 11.7732 43.0903 11.7732H33.0908V5.09052ZM72.4558 11.7732H60.5762C59.9204 11.7732 59.3775 11.2404 59.3775 10.5927V7.40362C59.3658 6.08634 60.4597 5.01121 61.8136 5.01121H77.5339L72.5606 0.0108777H61.0026C57.2915 0.0108777 54.2897 2.96146 54.2897 6.60577V11.8967C54.2897 14.4925 56.4293 16.6052 59.0823 16.6052H70.9497C71.7872 16.6052 72.4558 17.2626 72.4558 18.0853V20.6176C72.4558 22.0347 71.2843 23.2 69.841 23.2L59.7775 23.2122H54.3008V27.9843H59.7775L70.6015 27.997C74.4285 27.997 77.5468 24.9478 77.5468 21.1866V16.7699C77.5468 14.0088 75.2654 11.7695 72.4558 11.7695V11.7732ZM0.00123373 13.5439V21.2514L6.92125 27.9855H14.7564L0.00123373 13.5439ZM88.1656 27.5303V0.470371H93.4384L103.756 17.2717L113.902 0.470371H119.137L119.214 27.5303H113.233L113.193 11.2901L105.087 24.6705H102.214L94.1458 11.6902V27.5303H88.1656ZM136.588 27.9952C132.679 27.9952 129.623 26.9237 127.419 24.7855C125.217 22.6473 124.114 19.5927 124.114 15.6239V0.470371H130.489V15.392C130.489 17.9667 131.029 19.8264 132.103 20.9584C133.177 22.091 134.687 22.6589 136.629 22.6589C138.569 22.6589 140.078 22.091 141.153 20.9584C142.229 19.8264 142.766 17.9691 142.766 15.392V0.470371H149.065V15.6239C149.065 19.5909 147.962 22.6467 145.758 24.7855C143.554 26.9243 140.497 27.9952 136.588 27.9952ZM153.963 27.5303V0.470371H160.338V22.4276H174.152V27.5303H153.963ZM179.483 27.5303V5.57301H170.668V0.470371H194.675V5.57301H185.859V27.5303H179.483ZM196.7 27.5303V0.470371H203.075V27.5303H196.7ZM216.317 27.5303L204.433 0.470371H211.321L219.697 19.7973L228.203 0.470371H234.538L222.614 27.5303H216.317ZM241.761 22.5057H256.754V27.5303H235.423V0.470371H256.241V5.49491H241.761V11.3706H254.55V16.2432H241.761V22.5057ZM260.433 27.5303V0.470371H272.357C274.822 0.470371 276.95 0.863237 278.732 1.649C280.516 2.43416 281.895 3.56319 282.865 5.03181C283.834 6.49922 284.32 8.25355 284.32 10.2882C284.32 12.2998 283.835 14.0336 282.865 15.4889C281.895 16.9442 280.517 18.0593 278.732 18.8323L284.832 27.5303H277.946L272.657 19.9892L266.808 19.9916V27.5303H260.433ZM266.808 15.004H272.003C273.971 15.004 275.44 14.5857 276.41 13.7491C277.382 12.9113 277.867 11.758 277.867 10.2882C277.867 8.79414 277.38 7.63367 276.41 6.80916C275.44 5.98586 273.969 5.57301 272.003 5.57301H266.808V15.004ZM297.011 27.9952C294.808 27.9952 292.695 27.7022 290.676 27.1241C288.657 26.5459 287.029 25.7904 285.797 24.863L287.96 20.1466C289.141 20.9711 290.538 21.6491 292.151 22.1776C293.764 22.7043 295.398 22.9694 297.051 22.9694C298.309 22.9694 299.327 22.8459 300.102 22.6007C300.874 22.3574 301.447 22.0147 301.813 21.5765C302.179 21.1394 302.365 20.6363 302.365 20.0679C302.365 19.3475 302.073 18.7736 301.498 18.3493C300.921 17.9261 300.161 17.5744 299.215 17.305C298.274 17.0356 297.228 16.7765 296.087 16.5326C294.947 16.2886 293.803 15.9841 292.664 15.6239C291.523 15.2631 290.477 14.7994 289.535 14.2328C288.59 13.6661 287.822 12.9173 287.232 11.9893C286.644 11.0637 286.348 9.87654 286.348 8.43395C286.348 6.88724 286.775 5.47493 287.627 4.20003C288.478 2.92573 289.765 1.9063 291.484 1.14656C293.199 0.388036 295.359 0.00543884 297.956 0.00543884C299.688 0.00543884 301.394 0.206415 303.072 0.604746C304.75 1.00368 306.233 1.6042 307.519 2.40329L305.552 7.15784C304.266 6.43745 302.981 5.90111 301.695 5.55302C300.409 5.20615 299.151 5.03181 297.916 5.03181C296.685 5.03181 295.672 5.17345 294.886 5.45616C294.101 5.73887 293.535 6.10755 293.195 6.55915C292.854 7.00833 292.684 7.53136 292.684 8.12341C292.684 8.82018 292.973 9.38195 293.548 9.80631C294.124 10.2313 294.887 10.5739 295.831 10.8306C296.775 11.0873 297.818 11.3476 298.959 11.6036C300.1 11.8603 301.242 12.157 302.383 12.493C303.525 12.8277 304.568 13.2781 305.512 13.8447C306.456 14.4113 307.225 15.1596 307.815 16.087C308.404 17.015 308.7 18.1888 308.7 19.6054C308.7 21.1255 308.267 22.5202 307.401 23.7806C306.536 25.0422 305.242 26.0622 303.525 26.8341C301.809 27.6065 299.636 27.9952 297.011 27.9952ZM318.007 22.5057H333V27.5303H311.671V0.470371H332.488V5.49491H318.007V11.3706H330.796V16.2432H318.007V22.5057Z" fill="url(#paint0_linear_396_5700)"/>
<defs>
<linearGradient id="paint0_linear_396_5700" x1="232.088" y1="1.13203" x2="101.094" y2="27.7657" gradientUnits="userSpaceOnUse">
<stop stop-color="#A8DCF8"/>
<stop offset="0.45098" stop-color="#C3E4F9"/>
<stop offset="1" stop-color="#D1A6FB"/>
</linearGradient>
</defs>
</svg>
