<svg width="33" height="32" viewBox="0 0 33 32" fill="none" xmlns="http://www.w3.org/2000/svg">
<g opacity="0.8">
<path d="M0.981018 15.3333C0.981018 8.10533 0.981018 4.49133 3.20341 2.24533C5.42579 -0.000666618 9.00352 2.34616e-10 16.1577 2.34616e-10H17.4774C24.6315 2.34616e-10 28.2092 0 30.4316 2.24533C32.654 4.49133 32.654 8.10533 32.654 15.3333V16.6667C32.654 23.8947 32.654 27.5093 30.4316 29.7547C28.2086 32 24.6315 32 17.4774 32H16.1577C9.00352 32 5.42645 32 3.20341 29.7547C0.981018 27.5087 0.981018 23.8947 0.981018 16.6667V15.3333Z" fill="url(#paint0_linear_386_4409)"/>
<path d="M0.981018 15.3333C0.981018 8.10533 0.981018 4.49133 3.20341 2.24533C5.42579 -0.000666618 9.00352 2.34616e-10 16.1577 2.34616e-10H17.4774C24.6315 2.34616e-10 28.2092 0 30.4316 2.24533C32.654 4.49133 32.654 8.10533 32.654 15.3333V16.6667C32.654 23.8947 32.654 27.5093 30.4316 29.7547C28.2086 32 24.6315 32 17.4774 32H16.1577C9.00352 32 5.42645 32 3.20341 29.7547C0.981018 27.5087 0.981018 23.8947 0.981018 16.6667V15.3333Z" fill="url(#paint1_linear_386_4409)"/>
<path d="M0.981018 15.3333C0.981018 8.10533 0.981018 4.49133 3.20341 2.24533C5.42579 -0.000666618 9.00352 2.34616e-10 16.1577 2.34616e-10H17.4774C24.6315 2.34616e-10 28.2092 0 30.4316 2.24533C32.654 4.49133 32.654 8.10533 32.654 15.3333V16.6667C32.654 23.8947 32.654 27.5093 30.4316 29.7547C28.2086 32 24.6315 32 17.4774 32H16.1577C9.00352 32 5.42645 32 3.20341 29.7547C0.981018 27.5087 0.981018 23.8947 0.981018 16.6667V15.3333Z" fill="url(#paint2_linear_386_4409)"/>
<path fill-rule="evenodd" clip-rule="evenodd" d="M8.79304 15.3699C13.4059 13.3423 16.4893 12.0317 18.0187 11.3888C22.4095 9.559 23.3222 9.23755 23.9142 9.23755C24.0375 9.23755 24.3335 9.26228 24.5309 9.41064C24.6789 9.53428 24.7282 9.70737 24.7529 9.831C24.7775 9.95464 24.8022 10.2266 24.7775 10.4492C24.5309 12.9466 23.5195 19.0543 22.9768 21.8485C22.7548 23.0354 22.3108 23.431 21.8915 23.4805C20.9788 23.5547 20.2634 22.8623 19.3754 22.2936C17.994 21.3787 17.2046 20.8099 15.8479 19.9198C14.2939 18.8812 15.3052 18.3125 16.1933 17.3976C16.4153 17.1503 20.4854 13.4659 20.5594 13.1197C20.5594 13.0703 20.5841 12.9219 20.4854 12.8477C20.3867 12.7736 20.2634 12.7983 20.1647 12.823C20.0167 12.8477 17.7967 14.3314 13.4799 17.2492C12.8385 17.6943 12.2712 17.8921 11.7531 17.8921C11.1858 17.8921 10.1004 17.5707 9.28639 17.2987C8.2997 16.9772 7.51034 16.8041 7.58434 16.2601C7.65834 15.9634 8.05302 15.6667 8.79304 15.3699Z" fill="#111010"/>
</g>
<defs>
<linearGradient id="paint0_linear_386_4409" x1="0.653992" y1="33.5" x2="44.4488" y2="28.2313" gradientUnits="userSpaceOnUse">
<stop offset="0.00718202" stop-color="#08ACDC"/>
<stop offset="0.213289" stop-color="#A4D5FF"/>
<stop offset="0.414811" stop-color="#D1B9EE"/>
<stop offset="0.769676" stop-color="#C65A9C"/>
<stop offset="1" stop-color="#AC3174"/>
</linearGradient>
<linearGradient id="paint1_linear_386_4409" x1="-10.346" y1="32" x2="48.4192" y2="28.6724" gradientUnits="userSpaceOnUse">
<stop offset="0.00718202" stop-color="#08ACDC"/>
<stop offset="0.213289" stop-color="#A4D5FF"/>
<stop offset="0.414811" stop-color="#D1B9EE"/>
<stop offset="0.769676" stop-color="#C65A9C"/>
<stop offset="1" stop-color="#AC3174"/>
</linearGradient>
<linearGradient id="paint2_linear_386_4409" x1="-10.346" y1="32" x2="48.4192" y2="28.6724" gradientUnits="userSpaceOnUse">
<stop offset="0.00718202" stop-color="#08ACDC"/>
<stop offset="0.213289" stop-color="#A4D5FF"/>
<stop offset="0.414811" stop-color="#D1B9EE"/>
<stop offset="0.769676" stop-color="#C65A9C"/>
<stop offset="1" stop-color="#AC3174"/>
</linearGradient>
</defs>
</svg>
