<svg width="20" height="20" viewBox="0 0 20 20" fill="none" xmlns="http://www.w3.org/2000/svg">
<g clip-path="url(#clip0_2005_3628)">
<path d="M16.6667 2.50016H15.8333V1.66683C15.8333 1.2085 15.4583 0.833496 15 0.833496C14.5417 0.833496 14.1667 1.2085 14.1667 1.66683V2.50016H5.83333V1.66683C5.83333 1.2085 5.45833 0.833496 5 0.833496C4.54167 0.833496 4.16667 1.2085 4.16667 1.66683V2.50016H3.33333C2.41667 2.50016 1.66667 3.25016 1.66667 4.16683V17.5002C1.66667 18.4168 2.41667 19.1668 3.33333 19.1668H16.6667C17.5833 19.1668 18.3333 18.4168 18.3333 17.5002V4.16683C18.3333 3.25016 17.5833 2.50016 16.6667 2.50016ZM15.8333 17.5002H4.16667C3.70833 17.5002 3.33333 17.1252 3.33333 16.6668V6.66683H16.6667V16.6668C16.6667 17.1252 16.2917 17.5002 15.8333 17.5002Z" fill="white" fill-opacity="0.32"/>
</g>
<defs>
<clipPath id="clip0_2005_3628">
<rect width="20" height="20" fill="white"/>
</clipPath>
</defs>
</svg>
