<svg width="74" height="61" viewBox="0 0 74 61" fill="none" xmlns="http://www.w3.org/2000/svg">
<path d="M12.0078 48.9422L21.8802 58.9656H73.1001V19.5878L66.1494 2.03491V48.9422H12.0078Z" fill="white"/>
<path d="M1.03906 1.55493H66.1495V59.445H1.03906V1.55493Z" stroke="#FEFEFE" stroke-width="1.33342" stroke-miterlimit="22.9256"/>
<path d="M22.6012 9.68872C18.655 9.68872 15.4556 12.8922 15.4556 16.8424C15.4556 20.7927 18.655 23.9962 22.6012 23.9962C26.5474 23.9962 29.7469 20.7927 29.7469 16.8424C29.7469 12.8922 26.5484 9.68872 22.6012 9.68872ZM22.6012 20.6559C20.4965 20.6559 18.7925 18.9489 18.7925 16.8424C18.7925 14.7369 20.4965 13.028 22.6012 13.028C24.7068 13.028 26.4099 14.736 26.4099 16.8424C26.4099 18.9489 24.7068 20.6559 22.6012 20.6559Z" fill="white"/>
<path d="M35.4949 19.2381H40.6679V15.8997H35.4949V13.0719H44.0348V9.7627H32.0286V23.9224H35.4949V19.2381Z" fill="white"/>
<path d="M50.1643 19.2381H55.34V15.8997H50.1643V13.0719H58.7044V9.7627H46.699V23.9224H50.1643V19.2381Z" fill="white"/>
<path d="M25.6063 37.3899C24.9096 38.2863 23.8231 38.8663 22.6018 38.8663C20.4971 38.8663 18.7931 37.1583 18.7931 35.05C18.7931 32.9454 20.4971 31.2374 22.6018 31.2374C23.8231 31.2374 24.9096 31.8165 25.6063 32.712L28.313 30.7532C27.0098 29.0197 24.936 27.8972 22.6018 27.8972C18.6556 27.8972 15.457 31.1025 15.457 35.05C15.457 38.9994 18.6556 42.2038 22.6018 42.2038C24.9351 42.2038 27.0088 41.0821 28.313 39.3477L25.6063 37.3899Z" fill="white"/>
<path d="M37.1405 27.8972C33.1943 27.8972 29.9958 31.1025 29.9958 35.05C29.9958 38.9994 33.1943 42.2038 37.1405 42.2038C41.0858 42.2038 44.2853 38.9994 44.2853 35.05C44.2853 31.1025 41.0849 27.8972 37.1405 27.8972ZM37.1405 38.8663C35.0367 38.8663 33.3319 37.1574 33.3319 35.05C33.3319 32.9445 35.0367 31.2374 37.1405 31.2374C39.2434 31.2374 40.9501 32.9445 40.9501 35.05C40.9501 37.1574 39.2443 38.8663 37.1405 38.8663Z" fill="white"/>
<path d="M55.381 27.8972V36.044L50.2691 27.8972H46.699V42.0579H50.0651V34.1181L55.381 42.0497L55.3018 42.0579H58.7462V27.8972H55.381Z" fill="white"/>
</svg>
