<svg width="33" height="32" viewBox="0 0 33 32" fill="none" xmlns="http://www.w3.org/2000/svg">
<g opacity="0.8">
<path d="M0.653992 15.3333C0.653992 8.10533 0.653992 4.49133 2.87638 2.24533C5.09877 -0.000666618 8.6765 2.34616e-10 15.8306 2.34616e-10H17.1503C24.3045 2.34616e-10 27.8822 0 30.1046 2.24533C32.327 4.49133 32.327 8.10533 32.327 15.3333V16.6667C32.327 23.8947 32.327 27.5093 30.1046 29.7547C27.8815 32 24.3045 32 17.1503 32H15.8306C8.6765 32 5.09943 32 2.87638 29.7547C0.653992 27.5087 0.653992 23.8947 0.653992 16.6667V15.3333Z" fill="url(#paint0_linear_386_4414)"/>
<path d="M0.653992 15.3333C0.653992 8.10533 0.653992 4.49133 2.87638 2.24533C5.09877 -0.000666618 8.6765 2.34616e-10 15.8306 2.34616e-10H17.1503C24.3045 2.34616e-10 27.8822 0 30.1046 2.24533C32.327 4.49133 32.327 8.10533 32.327 15.3333V16.6667C32.327 23.8947 32.327 27.5093 30.1046 29.7547C27.8815 32 24.3045 32 17.1503 32H15.8306C8.6765 32 5.09943 32 2.87638 29.7547C0.653992 27.5087 0.653992 23.8947 0.653992 16.6667V15.3333Z" fill="url(#paint1_linear_386_4414)"/>
<path d="M0.653992 15.3333C0.653992 8.10533 0.653992 4.49133 2.87638 2.24533C5.09877 -0.000666618 8.6765 2.34616e-10 15.8306 2.34616e-10H17.1503C24.3045 2.34616e-10 27.8822 0 30.1046 2.24533C32.327 4.49133 32.327 8.10533 32.327 15.3333V16.6667C32.327 23.8947 32.327 27.5093 30.1046 29.7547C27.8815 32 24.3045 32 17.1503 32H15.8306C8.6765 32 5.09943 32 2.87638 29.7547C0.653992 27.5087 0.653992 23.8947 0.653992 16.6667V15.3333Z" fill="url(#paint2_linear_386_4414)"/>
<path fill-rule="evenodd" clip-rule="evenodd" d="M8.42828 10H6.11879C5.45894 10 5.32697 10.3133 5.32697 10.66C5.32697 11.278 6.10955 14.3433 8.97266 18.3973C10.881 21.166 13.5699 22.6667 16.0166 22.6667C17.4848 22.6667 17.6662 22.3333 17.6662 21.7593V19.6667C17.6662 19 17.8048 18.8667 18.27 18.8667C18.6131 18.8667 19.2004 19.04 20.5703 20.3747C22.1361 21.9567 22.3941 22.6667 23.275 22.6667H25.5845C26.2443 22.6667 26.5743 22.3333 26.3836 21.6753C26.1757 21.02 25.4281 20.0687 24.4357 18.9413C23.8972 18.2987 23.0896 17.606 22.8454 17.26C22.5023 16.8153 22.6013 16.6173 22.8454 16.222C22.8454 16.222 25.659 12.2173 25.9533 10.858C26.0998 10.3633 25.9533 10 25.2539 10H22.9451C22.3578 10 22.0873 10.3133 21.9408 10.66C21.9408 10.66 20.7662 13.552 19.1027 15.4307C18.5643 15.9747 18.3195 16.148 18.0259 16.148C17.8794 16.148 17.6669 15.9747 17.6669 15.4807V10.858C17.6669 10.2647 17.496 10 17.007 10H13.3778C13.011 10 12.7906 10.2753 12.7906 10.5367C12.7906 11.0987 13.622 11.2287 13.7078 12.81V16.2467C13.7078 17 13.5732 17.1367 13.2789 17.1367C12.4963 17.1367 10.5919 14.2313 9.46227 10.9073C9.24056 10.26 9.01819 10 8.42828 10Z" fill="#111010"/>
</g>
<defs>
<linearGradient id="paint0_linear_386_4414" x1="0.326966" y1="33.5" x2="44.1218" y2="28.2313" gradientUnits="userSpaceOnUse">
<stop offset="0.00718202" stop-color="#08ACDC"/>
<stop offset="0.213289" stop-color="#A4D5FF"/>
<stop offset="0.414811" stop-color="#D1B9EE"/>
<stop offset="0.769676" stop-color="#C65A9C"/>
<stop offset="1" stop-color="#AC3174"/>
</linearGradient>
<linearGradient id="paint1_linear_386_4414" x1="-10.673" y1="32" x2="48.0921" y2="28.6724" gradientUnits="userSpaceOnUse">
<stop offset="0.00718202" stop-color="#08ACDC"/>
<stop offset="0.213289" stop-color="#A4D5FF"/>
<stop offset="0.414811" stop-color="#D1B9EE"/>
<stop offset="0.769676" stop-color="#C65A9C"/>
<stop offset="1" stop-color="#AC3174"/>
</linearGradient>
<linearGradient id="paint2_linear_386_4414" x1="-10.673" y1="32" x2="48.0921" y2="28.6724" gradientUnits="userSpaceOnUse">
<stop offset="0.00718202" stop-color="#08ACDC"/>
<stop offset="0.213289" stop-color="#A4D5FF"/>
<stop offset="0.414811" stop-color="#D1B9EE"/>
<stop offset="0.769676" stop-color="#C65A9C"/>
<stop offset="1" stop-color="#AC3174"/>
</linearGradient>
</defs>
</svg>
