<svg aria-hidden="true" xmlns="http://www.w3.org/2000/svg" xmlns:xlink="http://www.w3.org/1999/xlink"><symbol viewBox="0 0 24 25" fill="none" id="icon-arrow-next" xmlns="http://www.w3.org/2000/svg">
<path d="M13.75 6.5L20 13M20 13L13.75 19.5M20 13L5 13" stroke="currentColor" stroke-opacity="0.87" stroke-width="1.8" stroke-linecap="round" stroke-linejoin="round"/>
</symbol><symbol viewBox="0 0 24 24" fill="none" id="icon-close" xmlns="http://www.w3.org/2000/svg">
<path d="M20 4L4 20M20 20L4 4" stroke="currentColor" stroke-opacity="0.56" stroke-width="2" stroke-linecap="round"/>
</symbol><symbol viewBox="0 0 22 22" fill="none" id="icon-copy" xmlns="http://www.w3.org/2000/svg">
<path d="M7.09752 9.24393L5.13251 11.2089C4.39864 11.9428 3.97661 12.9414 3.98432 13.9908C3.99204 15.0402 4.40483 16.0449 5.17353 16.7898C5.91844 17.5586 6.92329 17.9713 7.97257 17.979C9.04578 17.9869 10.0207 17.5887 10.7546 16.8548L12.7196 14.8898M15.2295 12.4279L17.1945 10.4629C17.9284 9.72899 18.3504 8.73044 18.3427 7.681C18.335 6.63156 17.9222 5.62692 17.1535 4.88196C16.4088 4.13722 15.4041 3.7244 14.3547 3.71669C13.3052 3.70898 12.3065 4.10705 11.5726 4.84094L9.60762 6.80595M8.18372 13.7632L14.0787 7.86814" stroke="currentColor" stroke-width="1.4" stroke-linecap="round" stroke-linejoin="round"/>
</symbol><symbol viewBox="0 0 17 17" fill="none" id="icon-down" xmlns="http://www.w3.org/2000/svg">
<path d="M2.73486 6.27344L8.19427 11.2734L13.6519 6.27344" stroke="currentColor" stroke-opacity="0.64" stroke-width="2" stroke-linecap="round" stroke-linejoin="round"/>
</symbol><symbol viewBox="0 0 19 18" fill="none" id="icon-mail" xmlns="http://www.w3.org/2000/svg">
<path d="M3.59375 4.59375L9.5 8.39063L15.8281 4.59375M4.4375 13.7283C3.50552 13.7283 2.75 12.9727 2.75 12.0408V5.4375C2.75 4.50552 3.50552 3.75 4.4375 3.75H14.5625C15.4945 3.75 16.25 4.50552 16.25 5.4375V12.0408C16.25 12.9727 15.4945 13.7283 14.5625 13.7283H4.4375Z" stroke="currentColor" stroke-opacity="0.72" stroke-width="1.4" stroke-linecap="round" stroke-linejoin="round"/>
</symbol><symbol viewBox="0 0 18 18" fill="none" id="icon-next" xmlns="http://www.w3.org/2000/svg">
<path d="M9 0L7.41375 1.58625L13.6913 7.875H0V10.125H13.6913L7.41375 16.4138L9 18L18 9L9 0Z" fill="currentColor" fill-opacity="0.87"/>
</symbol><symbol viewBox="0 0 49 48" fill="none" id="icon-play" xmlns="http://www.w3.org/2000/svg">
<path d="M36.4465 21.8747C39.1795 23.3977 39.1895 25.3135 36.4465 27.0354L15.2525 41.3291C12.5896 42.7502 10.7809 41.9111 10.5911 38.8361L10.5011 8.91964C10.4412 6.08709 12.7744 5.2868 14.9977 6.64487L36.4465 21.8747Z" fill="currentColor" stroke="currentColor" stroke-width="1.4"/>
</symbol><symbol viewBox="0 0 18 18" fill="none" id="icon-prev" xmlns="http://www.w3.org/2000/svg">
<path d="M9 18L10.5862 16.4138L4.30875 10.125L18 10.125L18 7.875L4.30875 7.875L10.5862 1.58625L9 7.86805e-07L-7.86805e-07 9L9 18Z" fill="currentColor" fill-opacity="0.87"/>
</symbol><symbol viewBox="0 0 16 16" fill="none" id="icon-rotate" xmlns="http://www.w3.org/2000/svg">
<path d="M4.83826 3.45569L11.9228 3.62848M11.9228 3.62848L12.0956 10.7131M11.9228 3.62848L3.62869 11.9226" stroke="currentColor" stroke-width="1.6" stroke-linecap="round" stroke-linejoin="round"/>
</symbol><symbol viewBox="0 0 19 18" fill="none" id="icon-tel" xmlns="http://www.w3.org/2000/svg">
<path d="M15.9974 14.0781C15.9974 14.0781 15.1284 14.9317 14.9154 15.1819C14.5685 15.5521 14.1598 15.7269 13.6239 15.7269C13.5724 15.7269 13.5175 15.7269 13.4659 15.7235C12.4458 15.6583 11.4978 15.2607 10.7868 14.9214C8.84274 13.9822 7.13566 12.6488 5.7171 10.9589C4.54584 9.55007 3.76271 8.24753 3.24406 6.849C2.92463 5.99549 2.80784 5.33051 2.85936 4.70323C2.89371 4.30218 3.04828 3.96969 3.33336 3.68518L4.50462 2.51632C4.67292 2.35864 4.85153 2.27295 5.02671 2.27295C5.2431 2.27295 5.41827 2.4032 5.52818 2.51289C5.53162 2.51632 5.53505 2.51975 5.53849 2.52318C5.74801 2.71856 5.94723 2.9208 6.15675 3.13674C6.26322 3.24643 6.37314 3.35612 6.48305 3.46924L7.42074 4.40501C7.78483 4.76836 7.78483 5.10428 7.42074 5.46762C7.32114 5.56702 7.22496 5.66643 7.12535 5.7624C6.83683 6.05719 7.06348 5.831 6.76466 6.09837C6.75779 6.10522 6.75092 6.10865 6.74748 6.11551C6.45209 6.41029 6.50705 6.69823 6.56887 6.89361C6.57231 6.90389 6.57574 6.91417 6.57918 6.92446C6.82305 7.51403 7.16652 8.06933 7.68861 8.73088L7.69205 8.73431C8.64004 9.89975 9.63956 10.8081 10.7421 11.5039C10.8829 11.5931 11.0272 11.665 11.1646 11.7336C11.2883 11.7953 11.405 11.8536 11.5046 11.9153C11.5184 11.9221 11.5321 11.9324 11.5459 11.9393C11.6626 11.9975 11.7726 12.025 11.8859 12.025C12.171 12.025 12.3496 11.8467 12.408 11.7884L13.0812 11.1166C13.198 11 13.3835 10.8595 13.5999 10.8595C13.8129 10.8595 13.988 10.9932 14.0945 11.1097C14.0979 11.1131 14.0979 11.1131 14.1014 11.1166L15.9939 13.0053C16.3477 13.3549 15.9974 14.0781 15.9974 14.0781Z" stroke="currentColor" stroke-opacity="0.72" stroke-width="1.4" stroke-linecap="round" stroke-linejoin="round"/>
</symbol><symbol viewBox="0 0 18 15" fill="none" id="icon-tg" xmlns="http://www.w3.org/2000/svg">
<path fill-rule="evenodd" clip-rule="evenodd" d="M1.79304 6.36993C6.40586 4.34229 9.48928 3.03174 11.0187 2.38883C15.4095 0.559004 16.3222 0.237549 16.9142 0.237549C17.0375 0.237549 17.3335 0.262276 17.5309 0.41064C17.6789 0.534277 17.7282 0.707368 17.7529 0.831004C17.7775 0.954641 17.8022 1.22664 17.7775 1.44919C17.5309 3.94665 16.5195 10.0543 15.9768 12.8485C15.7548 14.0354 15.3108 14.431 14.8915 14.4805C13.9788 14.5547 13.2634 13.8623 12.3754 13.2936C10.994 12.3787 10.2046 11.8099 8.84793 10.9198C7.29388 9.88121 8.30525 9.31248 9.19328 8.39757C9.41528 8.15029 13.4854 4.46592 13.5594 4.11974C13.5594 4.07029 13.5841 3.92192 13.4854 3.84774C13.3867 3.77356 13.2634 3.79828 13.1647 3.82301C13.0167 3.84774 10.7967 5.33138 6.47986 8.2492C5.8385 8.6943 5.27115 8.89211 4.75314 8.89211C4.18579 8.89211 3.10042 8.57066 2.28639 8.29866C1.2997 7.9772 0.510338 7.80411 0.58434 7.26011C0.658342 6.96338 1.05302 6.66665 1.79304 6.36993Z" fill="currentColor"/>
</symbol><symbol viewBox="0 0 22 13" fill="none" id="icon-vk" xmlns="http://www.w3.org/2000/svg">
<path fill-rule="evenodd" clip-rule="evenodd" d="M3.42828 0H1.11879C0.458936 0 0.326965 0.313333 0.326965 0.66C0.326965 1.278 1.10955 4.34333 3.97266 8.39733C5.88096 11.166 8.56986 12.6667 11.0166 12.6667C12.4848 12.6667 12.6662 12.3333 12.6662 11.7593V9.66667C12.6662 9 12.8048 8.86667 13.27 8.86667C13.6131 8.86667 14.2004 9.04 15.5703 10.3747C17.1361 11.9567 17.3941 12.6667 18.275 12.6667H20.5845C21.2443 12.6667 21.5743 12.3333 21.3836 11.6753C21.1757 11.02 20.4281 10.0687 19.4357 8.94133C18.8972 8.29867 18.0896 7.606 17.8454 7.26C17.5023 6.81533 17.6013 6.61733 17.8454 6.222C17.8454 6.222 20.659 2.21733 20.9533 0.858C21.0998 0.363334 20.9533 0 20.2539 0H17.9451C17.3578 0 17.0873 0.313333 16.9408 0.66C16.9408 0.66 15.7662 3.552 14.1027 5.43067C13.5643 5.97467 13.3195 6.148 13.0259 6.148C12.8794 6.148 12.6669 5.97467 12.6669 5.48067V0.858C12.6669 0.264667 12.496 0 12.007 0H8.37784C8.01096 0 7.79057 0.275334 7.79057 0.536667C7.79057 1.09867 8.62199 1.22867 8.70777 2.81V6.24667C8.70777 7 8.57316 7.13667 8.27887 7.13667C7.49628 7.13667 5.59194 4.23133 4.46227 0.907333C4.24056 0.26 4.01819 0 3.42828 0Z" fill="currentColor"/>
</symbol></svg>